<svg width="70" height="69" viewBox="0 0 70 69" fill="none" xmlns="http://www.w3.org/2000/svg">
<path fill-rule="evenodd" clip-rule="evenodd" d="M50 49.1481C50 43.7445 54.477 39.3642 60 39.3642C65.523 39.3642 70 43.7445 70 49.1481C70 54.5518 65.523 58.9321 60 58.9321C60 64.3358 55.523 68.716 50 68.716C44.477 68.716 40 64.3358 40 58.9321C40 53.5284 44.477 49.1481 50 49.1481ZM10 10.0123C10 4.60867 14.477 0.228394 20 0.228394C25.523 0.228394 30 4.60867 30 10.0123C30 15.416 25.523 19.7963 20 19.7963C20 25.2 15.523 29.5802 10 29.5802C4.477 29.5802 0 25.2 0 19.7963C0 14.3926 4.477 10.0123 10 10.0123ZM20 17.8395C24.418 17.8395 28 14.3349 28 10.0123C28 5.6898 24.418 2.18518 20 2.18518C15.582 2.18518 12 5.6898 12 10.0123C12 14.3349 15.582 17.8395 20 17.8395ZM60 56.9753C64.418 56.9753 68 53.4707 68 49.1481C68 44.8256 64.418 41.321 60 41.321C55.582 41.321 52 44.8256 52 49.1481C52 53.4707 55.582 56.9753 60 56.9753Z" fill="black"/>
</svg>
